<?xml version="1.0" encoding="utf-8"?>
<!-- Generator: Adobe Illustrator 22.0.1, SVG Export Plug-In . SVG Version: 6.00 Build 0)  -->
<svg height="400" version="1.1" id="Capa_1" xmlns="http://www.w3.org/2000/svg" xmlns:xlink="http://www.w3.org/1999/xlink" x="0px" y="0px"
	 viewBox="0 0 99.1 165.9" style="enable-background:new 0 0 99.1 165.9;" xml:space="preserve">
<style type="text/css">
	.st0{fill:none;stroke:#000000;stroke-width:4;stroke-linecap:round;stroke-linejoin:round;stroke-miterlimit:10;}
	.st0 {
		stroke-dasharray: 445;
		stroke-dashoffset: 0;
		animation: dash 1.3s ease;
		z-index: 100;
	}
	@keyframes dash {
		from {
		  stroke-dashoffset: 445;
		}
		to {
		  stroke-dashoffset: 0;
		}
	}
</style>
<path class="st0" d="M24.1,82.9c0,0,0.3-30.7,0-44.8C23.7,23.2,2,25.4,2,38c0,10,0,76.1,0,84.1c0,9,12.4,41.8,44.5,41.8
	s50.7-35.8,50.7-49.6S92,86,77.5,86s-33.1,3.8-40,6.9c-6.9,3.1-7.9,19.3,3.8,19s21-1.7,22.4-1.7c1.4,0,7.6-0.3,7.6,5.5"/>
<path class="st0" d="M20.3,29.9c0,0,0-6,0-9.8c0.1-12.2,21.4-14.2,21.3,0c-0.1,9.7,0,58.3,0,58.3"/>
<path class="st0" d="M37.8,11.9c0.1-12.2,21.4-14.2,21.3,0c-0.1,9.7,0,64.1,0,64.1"/>
<path class="st0" d="M59.7,9c6.2-4.3,17.3-2.5,17.2,7.7c-0.1,9.7,0,67.1,0,67.1"/>
</svg>
