<?xml version="1.0" encoding="utf-8"?>
<!-- Generator: Adobe Illustrator 22.0.1, SVG Export Plug-In . SVG Version: 6.00 Build 0)  -->
<svg height="400" version="1.1" id="Capa_1" xmlns="http://www.w3.org/2000/svg" xmlns:xlink="http://www.w3.org/1999/xlink" x="0px" y="0px"
	 viewBox="0 0 104 127.1" style="enable-background:new 0 0 104 127.1;" xml:space="preserve">
<style type="text/css">
	.st0{fill:none;stroke:#000000;stroke-width:4;stroke-linecap:round;stroke-linejoin:round;stroke-miterlimit:10;}
	.st0 {
		stroke-dasharray: 385;
		stroke-dashoffset: 0;
		animation: dash 1.3s ease;
		z-index: 100;
	}
	@keyframes dash {
		from {
		  stroke-dashoffset: 385;
		}
		to {
		  stroke-dashoffset: 0;
		}
	}
</style>
<path class="st0" d="M17.9,29.1c0,0,3.9,3.9,6.4,6.4s7.1,5.9,12.5,0.5s-0.9-25.4-16-25.4S2,36.6,2,41.2S2,86,2,91.7
	c0,5.7,4.9,33.4,42.8,33.4s57.1-36.7,57.1-50.7c0-8,0.2-17.3,0-20.7c-0.8-12.4-19.7-15-19.9-2.1C82,58.8,82.2,67.2,81.9,70
	c-0.3,2.9-4.6,11.7-14,11.4"/>
<path class="st0" d="M28.8,10.6c0-4.9,10.9-8.3,17.1,0c3.9,5.2,6.2,8.5,8.1,11.6c4.1,6.7-0.7,24.2-15.8,11.4"/>
<path class="st0" d="M45.1,9.6c0-7,11.7-11.3,18-3c3.9,5.2,6.2,8.5,8.1,11.6c4.1,6.7-0.7,24.2-15.8,11.4"/>
<path class="st0" d="M65.4,9.7c0-6.4,11.5-10.7,17.1-1.9c2.7,4.1,3.4,5.8,5.2,9.1c3.8,6.9-0.2,24.2-15.3,11.4"/>
<path class="st0" d="M22.8,34.1c-2.2,4.8-2.2,9.6,0,14.4"/>
<path class="st0" d="M39.8,35.1c-1.9,3.4-1.9,6.8,0,10.2"/>
<path class="st0" d="M56.6,34.1c-1.5,3.4-1.7,6-0.3,9.3"/>
<path class="st0" d="M72.5,30.4c-2.6,10.2-2.1,33-1.1,37c0.5,2.1,2.9,9.9,8,8.3"/>
</svg>
