<?xml version="1.0" encoding="utf-8"?>
<!-- Generator: Adobe Illustrator 22.0.1, SVG Export Plug-In . SVG Version: 6.00 Build 0)  -->
<svg version="1.1" id="Capa_1" xmlns="http://www.w3.org/2000/svg" xmlns:xlink="http://www.w3.org/1999/xlink" x="0px" y="0px"
	 viewBox="0 0 104 127.1" style="enable-background:new 0 0 104 127.1;" xml:space="preserve">
<style type="text/css">
	.st0{fill:none;stroke:#000000;stroke-width:4;stroke-linecap:round;stroke-linejoin:round;stroke-miterlimit:10;}
</style>
<path class="st0" d="M17.9,29.1c0,0,3.9,3.9,6.4,6.4s7.1,5.9,12.5,0.5s-0.9-25.4-16-25.4S2,36.6,2,41.2s0,37.1,0,50.5
	c0,0,4.9,33.4,42.8,33.4s57.3-39.3,57.1-50.7c-0.1-8,0.2-17.3,0-20.7c-0.8-12.4-19.7-15-19.9-2.1C82,58.8,82.2,67.2,81.9,70
	c-0.3,2.9-4.6,11.7-14,11.4"/>
<path class="st0" d="M28.8,10.6c0-4.9,10.9-8.3,17.1,0c3.9,5.2,6.2,8.5,8.1,11.6c4.1,6.7-0.7,24.2-15.8,11.4"/>
<path class="st0" d="M45.1,9.6c0-7,11.7-11.3,18-3c3.9,5.2,6.2,8.5,8.1,11.6c4.1,6.7-0.7,24.2-15.8,11.4"/>
<path class="st0" d="M65.4,9.7c0-6.4,11.5-10.7,17.1-1.9c2.7,4.1,3.4,5.8,5.2,9.1c3.8,6.9-0.2,24.2-15.3,11.4"/>
<line class="st0" x1="22.8" y1="34.1" x2="22.8" y2="48.5"/>
<line class="st0" x1="39.8" y1="34.1" x2="39.8" y2="45.3"/>
<line class="st0" x1="56.6" y1="34.1" x2="56.6" y2="44.2"/>
<path class="st0" d="M72.5,34.1v36.3c0,0,1.8,7,6.8,5.3"/>
</svg>
