<?xml version="1.0" encoding="utf-8"?>
<!-- Generator: Adobe Illustrator 22.0.1, SVG Export Plug-In . SVG Version: 6.00 Build 0)  -->
<svg width="420" height="420" version="1.1" id="keyAbece__hand__SVG" xmlns="http://www.w3.org/2000/svg" xmlns:xlink="http://www.w3.org/1999/xlink" x="0px" y="0px"
	 viewBox="0 0 99.2 97" style="enable-background:new 0 0 99.2 97;" xml:space="preserve">
<style type="text/css">
	.st0, st1{fill:none;stroke:#000000;stroke-width:4;stroke-linecap:round;stroke-linejoin:round;stroke-miterlimit:10;}
	.st0 {
		stroke-dasharray: 330;
		stroke-dashoffset: 0;
		animation: dash 1.6s linear;
	}
	.st1 {
		filter: drop-shadow(2px 2px 0px rgba(227,227,227,1));
	}

	@keyframes dash {
		from {
		  stroke-dashoffset: 330;
		}
		to {
		  stroke-dashoffset: 0;
		}
	}
</style>
<path class="st0 st1" d="M54.4,13.4c4.2-4.1,14-2.9,16.9,2.9c1.9,3.8,4.1,16.1,4.1,24.1c0,6.8-7.7,10.2-13.8,6.1"/>
<path class="st0 st1" d="M46.1,46.8c6.5,6.6,16.5,3.1,16.5-4.8c0-8.4-4-21.4-5.9-25.4C53.4,10.1,41.9,9,38,14.3"/>
<path class="st0 st1" d="M22.7,19.5c0.7-8.5,15.2-8.4,18.7-1.2c1.9,3.8,5.6,16.1,5.6,24.1c0,7.7-9.8,11-15.9,4.2"/>
<path class="st0 st1" d="M13.2,37.1c2-0.1,4,0.9,4.3,3.1c0.2,1-0.4,4.5-0.4,7.8c0,5,11.8,6.8,13-1c2-13-5-24-7-27c-5-7-22-4-21.1,14.1
	c0.1,2.6-0.2,22.4,0,25.7c2.2,45.6,80.1,49.4,84.9-2.9c0.7-7.9,1.1-22.2,1.6-27.4c0.6-5.7,2.3-12.8,6.9-17.8
	c4.6-4.9-1.3-10.7-8.9-9.5c-4.1,0.8-12,5-14.3,13.5"/>
</svg>
