<?xml version="1.0" encoding="utf-8"?>
<!-- Generator: Adobe Illustrator 22.0.1, SVG Export Plug-In . SVG Version: 6.00 Build 0)  -->
<svg version="1.1" id="Bandera" xmlns="http://www.w3.org/2000/svg" xmlns:xlink="http://www.w3.org/1999/xlink" x="0px" y="0px"
	 viewBox="0 0 81 111.9" style="enable-background:new 0 0 81 111.9;" xml:space="preserve">
<style type="text/css">
	.st0{fill:#FDD118;}
	.st1{fill:#013794;}
	.st2{fill:#D00F27;}
</style>
<g>
	<path class="st0" d="M74.2,27.9c0-2.8-2.8-3.6-4.5-3.6c-1.7,0-4.5,0.7-4.5,3.6v26.1c0,1.4-1.1,2.5-2.5,2.5s-2.5-1.1-2.5-2.5V18
		c0-3.5-2.4-4.7-4.4-4.7s-4.4,1.2-4.4,4.7c0,0.2,0,0.5-0.1,0.7v35.3c0,1.4-1.1,2.5-2.5,2.5s-2.5-1.1-2.5-2.5V10.8
		c0-3.7-3.5-4.7-5.6-4.7c-2.1,0-5.6,1-5.6,4.7V18v36c0,1.4-1.1,2.5-2.5,2.5s-2.5-1.1-2.5-2.5V18c0-3.5-2.6-4.7-4.9-4.7
		c-2.3,0-4.9,1.2-4.9,4.7v28.3c0,0.2,0,0.4-0.1,0.6c1.8,4,3.1,9,4.2,13.9h49.8V27.9z"/>
	<path class="st0" d="M13,44.6c-1.1-1.1-2.3-1.5-3.7-1c-2,0.7-3.5,2.7-3.6,3.4c0,0.8,0.7,6.6,1.6,13.9h12
		C18.1,55.6,15.9,47.6,13,44.6z"/>
	<path class="st1" d="M23,68.4c-1.1,0-2.1-0.7-2.4-1.7c-0.1-0.4-0.3-1.1-0.6-2.4c-0.2-0.9-0.4-2-0.7-3.3h-12
		c0.9,7.1,1.9,15.6,2.8,22.4c0,0.1,0,0.1,0,0.2c0.1,1,0.2,2,0.4,2.9h27C37.3,77.5,32.2,68.4,23,68.4z"/>
	<path class="st1" d="M74.2,79.7c0,0,0-0.1,0-0.1V60.9H24.4c0.2,0.8,0.3,1.5,0.5,2.3c0,0.1,0.1,0.2,0.1,0.4
		c8.7,1.1,17.2,9,17.5,22.8h31.2C74.1,84.3,74.4,82.2,74.2,79.7z"/>
	<path class="st2" d="M42.5,86.8c0,1.4-1.1,2.5-2.5,2.5s-2.5-1.1-2.5-2.5c0-0.2,0-0.4,0-0.5h-27c1.4,7.6,6.3,12.1,10.4,14.6
		c6.1,3.7,14.1,5.5,22.7,5c8.5-0.5,16.4-3.2,22-7.5c3.2-2.5,6.7-6.4,8.1-12H42.5C42.5,86.5,42.5,86.7,42.5,86.8z"/>
	<path d="M40.8,111c1,0,2,0,3.1-0.1c6.3-0.4,12.2-1.8,17.4-4.2H21.1C26.8,109.5,33.6,111,40.8,111z"/>
	<path d="M40.7,1.1c-3.4,0-6.7,1.4-8.8,4h17.5C47.5,2.4,44.1,1.1,40.7,1.1z"/>
	<path d="M25.2,8.3c-4.9,0-9.9,3.3-9.9,9.7v22c-2.4-1.8-5.4-2.2-8.3-1c-3.5,1.4-6.4,5-6.4,7.9c0,0.8,0.7,6.8,1.6,13.9h5
		C6.4,53.6,5.7,47.8,5.7,47c0.1-0.7,1.6-2.7,3.6-3.4c1.4-0.5,2.5-0.1,3.7,1c3,3,5.1,11,6.4,16.3h5.1C23.3,56,22,51,20.2,47
		c0-0.2,0.1-0.4,0.1-0.6V18c0-3.5,2.6-4.7,4.9-4.7c2.3,0,4.9,1.2,4.9,4.7v36c0,1.4,1.1,2.5,2.5,2.5s2.5-1.1,2.5-2.5V18v-7.2
		c0-3.7,3.5-4.7,5.6-4.7c2.1,0,5.6,1,5.6,4.7v43.3c0,1.4,1.1,2.5,2.5,2.5s2.5-1.1,2.5-2.5V18.7c0.1-0.2,0.1-0.4,0.1-0.7
		c0-3.5,2.4-4.7,4.4-4.7s4.4,1.2,4.4,4.7v36c0,1.4,1.1,2.5,2.5,2.5s2.5-1.1,2.5-2.5V27.9c0-2.8,2.8-3.6,4.5-3.6
		c1.7,0,4.5,0.7,4.5,3.6v33h5v-33c0-5.6-4.8-8.6-9.5-8.6c-1.6,0-3.1,0.3-4.5,1V18c0-6.4-4.7-9.7-9.4-9.7c-1.6,0-3.2,0.4-4.6,1.2
		c-0.2-1.7-0.9-3.2-1.8-4.4H32c-0.9,1.2-1.6,2.7-1.8,4.5C28.6,8.7,26.9,8.3,25.2,8.3z"/>
	<path d="M10.1,83.3C9.3,76.5,8.2,68,7.3,60.9h-5c1,8.4,2.3,18.4,2.9,22.9c0.1,0.8,0.1,1.7,0.3,2.5h5.1c-0.2-0.9-0.3-1.9-0.4-2.9
		C10.1,83.4,10.1,83.3,10.1,83.3z"/>
	<path d="M20.6,66.6c0.3,1,1.3,1.7,2.4,1.7c9.2,0,14.3,9.1,14.5,17.9h5C42.2,72.5,33.7,64.6,25,63.5c0-0.1-0.1-0.2-0.1-0.4
		c-0.2-0.7-0.3-1.5-0.5-2.3h-5.1c0.3,1.3,0.5,2.4,0.7,3.3C20.3,65.5,20.5,66.2,20.6,66.6z"/>
	<path d="M74.2,79.6c0,0,0,0.1,0,0.1c0.1,2.4-0.1,4.6-0.6,6.6h5.1c0.4-2.2,0.6-4.4,0.4-6.8V60.9h-5V79.6z"/>
	<path d="M78.8,86.3h-5.1c-1.4,5.7-4.9,9.6-8.1,12c-5.6,4.4-13.4,7.1-22,7.5c-8.6,0.5-16.6-1.3-22.7-5c-4.1-2.5-9-7-10.4-14.6H5.4
		c1.2,8,5.6,14.5,12.9,18.9c0.9,0.5,1.9,1.1,2.8,1.5h40.1c2.7-1.2,5.2-2.7,7.4-4.4C74.1,98,77.6,92.6,78.8,86.3z"/>
	<path d="M37.5,86.8c0,1.4,1.1,2.5,2.5,2.5s2.5-1.1,2.5-2.5c0-0.2,0-0.3,0-0.5h-5C37.5,86.5,37.5,86.7,37.5,86.8z"/>
</g>
</svg>
